<svg fill="#000" width="16" height="16" viewBox="0 0 16 16" xmlns="http://www.w3.org/2000/svg">
<path d="M8.62155 1.21658C8.45088 1.08099 8.2349 1 8 1C7.44771 1 7 1.44772 7 2C7 2.55228 7.44771 3 8 3C4.1554 3 3.80482 5.42796 3.08886 10.3863C3.05992 10.5868 3.03039 10.7913 3 11C2.51458 11 2.02917 11.3534 1.54375 12.0603C1.4751 12.1603 1.43835 12.2787 1.43835 12.4C1.43835 12.7314 1.707 13 2.0384 13L6.58534 13C6.53007 13.1564 6.5 13.3247 6.5 13.5C6.5 14.3284 7.17157 15 8 15C8.82843 15 9.5 14.3284 9.5 13.5C9.5 13.3247 9.46992 13.1564 9.41465 13L13.9616 13C14.0829 13 14.2013 12.9633 14.3013 12.8946C14.5745 12.707 14.6439 12.3335 14.4562 12.0603C13.9708 11.3534 13.4854 11 13 11C12.9668 10.775 12.9346 10.5547 12.9031 10.3391C12.7783 9.48499 12.6644 8.70518 12.5409 7.99982C12.5273 7.99994 12.5137 8 12.5 8C11.9617 8 11.4454 7.90547 10.9669 7.7321C11.0539 8.18151 11.1391 8.69127 11.2279 9.26906C11.2687 9.53513 11.3106 9.81613 11.3674 10.204C11.3589 10.146 11.4807 10.9794 11.5161 11.219L11.5575 11.5H4.44301L4.48435 11.2161C4.50903 11.0466 4.57528 10.5882 4.6098 10.3494L4.63087 10.2036C4.68629 9.8214 4.72807 9.5381 4.7686 9.27157C5.39203 5.17234 5.83807 4.5 8 4.5C8.03774 4.5 8.07495 4.50021 8.11166 4.50065C8.03858 4.17884 8 3.84392 8 3.5C8 3.33101 8.00932 3.1642 8.02746 3.00004C8.09885 2.35473 8.30674 1.75013 8.62155 1.21658Z"/>
<circle cx="12.5" cy="3.5" r="2.5" fill="currentColor"/>
</svg>
